<?xml version="1.0" encoding="utf-8"?>
<!-- Generator: Adobe Illustrator 16.0.0, SVG Export Plug-In . SVG Version: 6.00 Build 0)  -->
<!DOCTYPE svg PUBLIC "-//W3C//DTD SVG 1.1//EN" "http://www.w3.org/Graphics/SVG/1.1/DTD/svg11.dtd">
<svg version="1.1" id="Layer_1" xmlns="http://www.w3.org/2000/svg" xmlns:xlink="http://www.w3.org/1999/xlink" x="0px" y="0px"
	 width="48px" height="48px" viewBox="0 0 48 48" enable-background="new 0 0 48 48" xml:space="preserve">
<g>
	<path d="M46.282,26.912l-1.289-0.963c-0.549-0.41-1.296-0.43-1.866-0.051l-16.226,10.78c-0.562,0.373-0.833,1.054-0.683,1.711
		l0.351,1.528c0.109,0.451,0.431,0.821,0.862,0.991c0.433,0.17,0.919,0.12,1.307-0.136l6.549-4.32
		c0.792,1.198,2.411,1.523,3.621,0.726c1.207-0.797,1.547-2.414,0.758-3.614l6.549-4.32c0.387-0.256,0.625-0.684,0.639-1.147
		S46.654,27.189,46.282,26.912z"/>
	<path d="M27.023,34.476l14.204-9.143c0.372-0.239,0.611-0.636,0.648-1.076c0.037-0.44-0.131-0.873-0.456-1.171
		c-1.033-0.948-2.404-2.329-3.287-3.701c-2.28-3.543-6.663-4.976-10.521-3.692c1.122,3.08,0.842,6.545-0.83,9.398
		c-0.727,1.235-1.281,2.929-1.62,4.134c-0.211,0.748-0.677,1.4-1.3,1.848c0.523,1.041,0.825,1.907,1.021,2.596
		c0.124,0.434,0.445,0.783,0.866,0.943C26.172,34.77,26.644,34.72,27.023,34.476z"/>
	<path d="M4.266,21.75c-0.455-0.271-1.033-0.219-1.432,0.13l-1.31,1.146c-0.354,0.3-0.539,0.754-0.495,1.217
		c0.043,0.462,0.307,0.874,0.71,1.104l6.811,3.895c-0.713,1.247-0.271,2.839,0.986,3.559c0.414,0.236,0.863,0.349,1.308,0.349
		c0.905,0,1.779-0.467,2.26-1.305l6.811,3.896c0.218,0.124,0.462,0.188,0.707,0.188c0.206,0,0.413-0.045,0.605-0.135
		c0.42-0.198,0.584-0.539,0.797-1.044c0.107-0.254,0.373-1.038,0.373-1.038c0.197-0.551-0.022-1.164-0.524-1.464L4.266,21.75z"/>
	<path d="M25.122,15.028l0.686-1.198c0.539-0.942,0.679-2.036,0.394-3.083c-0.286-1.046-0.961-1.918-1.9-2.455l-1.132-0.647
		c-0.611-0.35-1.308-0.535-2.011-0.535c-1.453,0-2.804,0.783-3.525,2.044l-0.714,1.249c-3.032,0.101-5.951,1.697-7.583,4.478
		c-1.128,1.922-2.192,3.076-2.998,3.82c-0.331,0.306-0.499,0.75-0.45,1.199c0.048,0.448,0.307,0.848,0.696,1.076l14.567,8.55
		c0.222,0.13,0.471,0.195,0.722,0.195c0.179,0,0.36-0.034,0.531-0.103c0.409-0.165,0.721-0.51,0.84-0.934
		c0.379-1.351,0.994-3.197,1.82-4.604C26.749,21.208,26.656,17.762,25.122,15.028z M23.214,12.346l-0.122,0.215
		c-0.398-0.338-0.824-0.652-1.289-0.925c-0.55-0.323-1.121-0.58-1.702-0.775l0.126-0.221c0.193-0.336,0.568-0.531,0.945-0.532
		c0.176,0,0.354,0.042,0.514,0.134l1.132,0.647c0.246,0.141,0.425,0.371,0.5,0.647C23.392,11.81,23.355,12.097,23.214,12.346z"/>
</g>
</svg>
