<?xml version="1.0" encoding="utf-8"?>
<!-- Generator: Adobe Illustrator 16.0.0, SVG Export Plug-In . SVG Version: 6.00 Build 0)  -->
<!DOCTYPE svg PUBLIC "-//W3C//DTD SVG 1.1//EN" "http://www.w3.org/Graphics/SVG/1.1/DTD/svg11.dtd">
<svg version="1.1" id="Layer_1" xmlns="http://www.w3.org/2000/svg" xmlns:xlink="http://www.w3.org/1999/xlink" x="0px" y="0px"
	 width="48px" height="48px" viewBox="0 0 48 48" enable-background="new 0 0 48 48" xml:space="preserve">
<g>
	<g>
		<path d="M40.987,24.129c-0.959-2.326-5.985-0.891-7.979-0.715c-2.069,0.183-6.147,1.656-8.215,1.49
			c-1.872-0.15-5.453-1.848-7.259-2.521c-1.173-0.437-4.097-1.26-4.86,0c-0.417,0.688,0.076,2.715,0.479,4.069
			c0.282,0.946,0.418,1.929,0.417,2.917l-0.02,13.88c0,0-0.002,0.013-0.002,0.021c0,1.865,5.896,3.378,13.167,3.378
			c7.272,0,13.167-1.511,13.167-3.378c0-0.008-0.001-0.021-0.001-0.021l0.02-13.588c0.002-1.32,0.265-2.623,0.751-3.851
			C40.917,25.144,41.119,24.449,40.987,24.129z M32.16,35.243l-2.155,1.966l0.589,2.859c0.07,0.34-0.065,0.689-0.348,0.894
			c-0.28,0.204-0.653,0.225-0.955,0.054l-2.537-1.442l-2.537,1.442c-0.302,0.171-0.676,0.15-0.955-0.054
			c-0.281-0.204-0.416-0.554-0.347-0.894l0.588-2.859l-2.155-1.966c-0.257-0.234-0.353-0.598-0.245-0.927
			c0.107-0.331,0.397-0.567,0.742-0.605l2.9-0.322l1.204-2.658c0.143-0.315,0.457-0.519,0.805-0.519
			c0.347,0,0.661,0.203,0.805,0.519l1.204,2.658l2.901,0.322c0.344,0.038,0.635,0.274,0.741,0.605
			C32.513,34.646,32.418,35.009,32.16,35.243z"/>
	</g>
	<path d="M35.521,17.581l2.441-0.733c0.43-0.128,0.759-0.473,0.868-0.907c0.11-0.436-0.017-0.896-0.334-1.213l-3.581-3.58
		c-0.315-0.316-0.776-0.444-1.212-0.334c-0.435,0.109-0.779,0.439-0.908,0.867l-0.731,2.443c0.095,0.075,0.187,0.155,0.274,0.243
		l2.938,2.938C35.363,17.394,35.444,17.486,35.521,17.581z"/>
	<path d="M31.77,22.175v-6.667l-0.085-0.088c-0.659-0.658-1.557-0.926-2.413-0.804v8.142c0.071-0.024,0.2-0.05,0.3-0.074
		C30.349,22.493,31.057,22.308,31.77,22.175z"/>
	<path d="M24.42,18.66l-2.498,2.501v1.494c0.856,0.342,1.784,0.636,2.498,0.765V18.66z"/>
	<path d="M28.059,15.064c-0.143,0.103-0.297,0.22-0.433,0.355l-2.065,2.067v5.986c0.715-0.055,1.642-0.229,2.498-0.435V15.064z"/>
	<path d="M34.372,21.785c0.024-0.003,0.05-0.008,0.074-0.011c0.89-1.118,0.813-2.748-0.22-3.782l-1.315-1.311v5.313
		c0,0,0.021-0.003,0.025-0.003C33.304,21.96,33.804,21.878,34.372,21.785z"/>
	<path d="M45.863,8.077c-1.21-2.575-3.353-4.522-6.027-5.485c-2.677-0.962-5.568-0.826-8.143,0.385
		c-2.574,1.212-4.521,3.354-5.483,6.028c-0.624,1.73-0.787,3.549-0.497,5.315l0.413-0.414c0.243-0.24,0.503-0.455,0.778-0.635
		c0.194-0.127,0.405-0.219,0.622-0.277c-0.032-0.759,0.035-1.522,0.206-2.275c0.938,0.485,1.881,0.854,2.777,1.132l0.234-0.785
		c0.341-1.132,1.26-2.016,2.404-2.319c-0.649-1.297-1.044-2.586-1.284-3.669c0.214-0.124,0.429-0.243,0.653-0.348
		c1.751-0.823,3.679-1.032,5.536-0.63c-0.972,1.979-1.433,3.952-1.648,5.513c0.008,0.007,0.016,0.014,0.022,0.021l1.426,1.425
		c1.924-1.624,4.147-2.463,5.867-2.893c0.14,0.237,0.271,0.481,0.391,0.736c0.839,1.783,1.042,3.751,0.607,5.642
		c-1.753-0.858-3.497-1.32-4.946-1.566l0.236,0.235c0.847,0.845,1.19,2.092,0.898,3.25c-0.151,0.596-0.461,1.13-0.88,1.558
		c0.289,0.731,0.506,1.435,0.665,2.073c-0.242,0.144-0.493,0.278-0.752,0.4c-0.93,0.437-1.91,0.699-2.903,0.79
		c-0.014,0.051-0.03,0.1-0.045,0.148c0.34-0.026,0.68-0.043,1.008-0.043c1.293,0,2.269,0.263,2.918,0.782
		c2.497-1.224,4.388-3.332,5.33-5.953C47.212,13.542,47.075,10.651,45.863,8.077z"/>
	<path d="M18.675,21.354l0.25-0.248l-0.338-2.229l3.211-2.518l0.246,1.63c0,0,1.813-1.813,2.017-2.017l0.02-0.02l-0.383-2.536
		c-0.94-6.214-6.776-10.503-12.991-9.562s-10.52,6.765-9.577,12.98l0.548,3.618c0.336,2.226,2.433,3.757,4.659,3.421
		c2.226-0.338,3.773-2.424,3.436-4.647L9.225,15.61c-0.268-1.769,0.955-3.423,2.72-3.691c1.769-0.267,3.425,0.952,3.693,2.719
		l0.904,5.976c0.572,0.149,1.03,0.313,1.242,0.392C18.047,21.102,18.351,21.223,18.675,21.354z M3.628,12.776l3.347,1.281
		c-0.121,0.609-0.141,1.25-0.043,1.898l0.196,1.294l-3.784-1.447C3.265,14.761,3.37,13.74,3.628,12.776z M5.991,21.596
		c-0.968,0.146-1.875-0.521-2.021-1.489l-0.169-1.104l3.615,1.381C7.216,21.005,6.681,21.491,5.991,21.596z M7.667,12.271
		L4.986,9.889C5.487,9.174,6.09,8.536,6.777,7.991l2.455,2.597C8.598,11.035,8.064,11.611,7.667,12.271z M11.586,9.645
		c-0.496,0.075-0.966,0.213-1.403,0.407l-0.831-3.49c0.542-0.194,1.112-0.34,1.702-0.43c0.372-0.056,0.742-0.087,1.109-0.099
		l0.434,3.552C12.266,9.574,11.927,9.593,11.586,9.645z M13.549,9.699l1.836-3.17c0.84,0.292,1.631,0.705,2.347,1.222l-2.046,2.902
		C15.056,10.192,14.326,9.862,13.549,9.699z M20.088,10.242c0.538,0.842,0.941,1.781,1.178,2.794l-3.185,2.5l-0.188-1.239
		c-0.101-0.666-0.313-1.285-0.62-1.841L20.088,10.242z"/>
</g>
</svg>
