<?xml version="1.0" encoding="utf-8"?>
<!-- Generator: Adobe Illustrator 16.0.0, SVG Export Plug-In . SVG Version: 6.00 Build 0)  -->
<!DOCTYPE svg PUBLIC "-//W3C//DTD SVG 1.1//EN" "http://www.w3.org/Graphics/SVG/1.1/DTD/svg11.dtd">
<svg version="1.1" id="Layer_1" xmlns="http://www.w3.org/2000/svg" xmlns:xlink="http://www.w3.org/1999/xlink" x="0px" y="0px"
	 width="48px" height="48px" viewBox="0 0 48 48" enable-background="new 0 0 48 48" xml:space="preserve">
<g>
	<path d="M28.377,46.938h10.766c1.551,0,2.801-1.276,2.801-2.827v-23.12H28.377V46.938z"/>
	<path d="M5.841,44.111c0,1.551,1.251,2.827,2.802,2.827h10.764V20.992H5.841V44.111z"/>
	<path d="M42.105,10.983H28.377v8.303h13.728c1.551,0,2.804-1.275,2.804-2.826v-2.636C44.909,12.273,43.656,10.983,42.105,10.983z"
		/>
	<path d="M2.875,13.824v2.636c0,1.551,1.255,2.826,2.806,2.826h13.727v-8.303H5.681C4.13,10.983,2.875,12.273,2.875,13.824z"/>
	<path d="M38.218,7.86c0.521-0.637,1.076-1.715,0.755-3.327c-0.419-2.098-2.628-3.401-5.765-3.401c-1.285,0-2.64,0.216-4.028,0.642
		c-0.87,0.267-1.677,0.641-2.415,1.071c-0.496-0.361-1.063-0.63-1.675-0.783c-0.378-0.106-0.775-0.171-1.183-0.188
		c-0.42,0.018-0.827,0.086-1.214,0.198c-0.599,0.155-1.153,0.421-1.64,0.776c-0.739-0.431-1.548-0.805-2.419-1.073
		c-1.388-0.426-2.743-0.642-4.027-0.642c-3.138,0-5.346,1.303-5.765,3.401C8.521,6.145,9.075,7.224,9.597,7.86
		c1.219,1.485,3.574,2.16,7.413,2.16h6.897h6.898C34.644,10.02,36.999,9.345,38.218,7.86z M19.055,6.61H17.01
		c-3.833,0-4.668-0.752-4.797-0.908c-0.042-0.051-0.128-0.135-0.053-0.513c0.055-0.151,0.775-0.678,2.447-0.678
		c0.935,0,1.984,0.173,3.035,0.496c0.544,0.167,1.06,0.37,1.544,0.637C19.111,5.955,19.067,6.278,19.055,6.61z M28.637,5.64
		c0.481-0.265,0.995-0.473,1.536-0.64c1.051-0.322,2.101-0.489,3.035-0.489c1.671,0,2.392,0.525,2.447,0.676
		c0.076,0.378-0.012,0.464-0.053,0.515c-0.129,0.156-0.965,0.908-4.797,0.908h-2.039C28.756,6.277,28.711,5.953,28.637,5.64z"/>
</g>
</svg>
