<?xml version="1.0" encoding="utf-8"?>
<!-- Generator: Adobe Illustrator 16.0.0, SVG Export Plug-In . SVG Version: 6.00 Build 0)  -->
<!DOCTYPE svg PUBLIC "-//W3C//DTD SVG 1.1//EN" "http://www.w3.org/Graphics/SVG/1.1/DTD/svg11.dtd">
<svg version="1.1" id="Layer_1" xmlns="http://www.w3.org/2000/svg" xmlns:xlink="http://www.w3.org/1999/xlink" x="0px" y="0px"
	 width="48px" height="48px" viewBox="0 0 48 48" enable-background="new 0 0 48 48" xml:space="preserve">
<path d="M38.503,25.781c2.102,0,3.806-1.692,3.806-3.794c0-2.102-1.704-3.794-3.806-3.794h-6.995c-0.315,0-0.602-0.185-0.732-0.473
	s-0.079-0.625,0.13-0.862c1.49-1.685,2.395-3.89,2.395-6.315C33.301,5.271,29.027,1,23.756,1s-9.545,4.271-9.545,9.542
	c0,2.425,0.905,4.631,2.395,6.316c0.209,0.237,0.26,0.574,0.13,0.862c-0.13,0.288-0.417,0.473-0.732,0.473H9.009
	c-2.102,0-3.806,1.692-3.806,3.794c0,2.102,1.704,3.794,3.806,3.794h6.196c0.716,0,1.296,0.58,1.296,1.296v3.943
	c0,0.789-0.313,1.546-0.871,2.104l-7.424,7.427c-1.486,1.486-1.485,3.896,0.001,5.382c0.713,0.713,1.682,1.115,2.691,1.115
	s1.978-0.401,2.691-1.115l5.678-5.678c1.19-1.19,2.805-1.859,4.488-1.859s3.298,0.668,4.488,1.859l5.678,5.678
	c1.486,1.486,3.896,1.486,5.382,0c1.487-1.486,1.485-3.896-0.001-5.382l-7.441-7.44c-0.559-0.558-0.872-1.315-0.872-2.104v-3.929
	c0-0.716,0.58-1.296,1.296-1.296H38.503z M26.442,7.921c0.675,0,1.223,0.547,1.223,1.224c0,0.676-0.548,1.223-1.223,1.223
	c-0.677,0-1.224-0.547-1.224-1.223C25.218,8.469,25.765,7.921,26.442,7.921z M21.07,7.921c0.676,0,1.224,0.547,1.224,1.224
	c0,0.676-0.548,1.223-1.224,1.223s-1.224-0.547-1.224-1.223C19.846,8.469,20.394,7.921,21.07,7.921z M23.756,31.087
	c-0.676,0-1.224-0.547-1.224-1.223c0-0.676,0.548-1.224,1.224-1.224c0.676,0,1.224,0.547,1.224,1.224
	C24.979,30.54,24.432,31.087,23.756,31.087z M23.756,25.926c-0.676,0-1.224-0.548-1.224-1.224c0-0.676,0.548-1.224,1.224-1.224
	c0.676,0,1.224,0.548,1.224,1.224C24.979,25.378,24.432,25.926,23.756,25.926z M23.937,15.261c-0.063,0-0.298,0-0.362,0
	c-4.928,0-5.705-4.321-5.712-4.365c-0.047-0.286,0.145-0.555,0.431-0.604c0.289-0.045,0.558,0.146,0.607,0.431
	c0.025,0.143,0.654,3.49,4.674,3.49c0.064,0,0.299,0,0.362,0c4.046,0,4.65-3.346,4.674-3.488c0.047-0.287,0.318-0.489,0.605-0.436
	c0.287,0.047,0.481,0.319,0.433,0.605C29.643,10.939,28.865,15.261,23.937,15.261z"/>
</svg>
