<?xml version="1.0" encoding="utf-8"?>
<!-- Generator: Adobe Illustrator 16.0.0, SVG Export Plug-In . SVG Version: 6.00 Build 0)  -->
<!DOCTYPE svg PUBLIC "-//W3C//DTD SVG 1.1//EN" "http://www.w3.org/Graphics/SVG/1.1/DTD/svg11.dtd">
<svg version="1.1" id="Layer_1" xmlns="http://www.w3.org/2000/svg" xmlns:xlink="http://www.w3.org/1999/xlink" x="0px" y="0px"
	 width="48px" height="48px" viewBox="0 0 48 48" enable-background="new 0 0 48 48" xml:space="preserve">
<g>
	<g>
		<path d="M24.834,3.909c4.217,0,8.185,1.644,11.17,4.629c2.98,2.98,4.621,6.948,4.62,11.174c0,2.144-0.415,4.204-1.218,6.11
			c-1.152-0.816-2.554-1.264-3.978-1.264c-0.56,0-1.115,0.069-1.653,0.205L33.08,24.94c0.986-1.549,1.514-3.348,1.514-5.229
			c0.001-2.605-1.014-5.055-2.857-6.897c-1.844-1.845-4.294-2.86-6.899-2.86s-5.055,1.016-6.899,2.859
			c-1.841,1.841-2.855,4.291-2.855,6.9c0,1.885,0.53,3.688,1.518,5.237L15.9,24.774c-0.542-0.14-1.105-0.21-1.672-0.21
			c-1.425,0-2.821,0.442-3.961,1.247c-2.374-5.773-1.192-12.694,3.385-17.272C16.64,5.553,20.611,3.909,24.834,3.909 M24.834,0.909
			c-5.023,0-9.75,1.958-13.303,5.508c-6.92,6.922-7.282,17.938-1.167,25.319v-0.342c0-1.176,0.562-2.308,1.491-3.027
			c0.67-0.521,1.521-0.803,2.373-0.803c0.313,0,0.625,0.038,0.928,0.116l7.077,1.787c0.604-0.345,1.305-0.561,2.049-0.561h1.11
			c0.745,0,1.443,0.216,2.046,0.562l7.076-1.797c0.299-0.076,0.607-0.113,0.915-0.113c0.845,0,1.691,0.279,2.367,0.804
			c0.929,0.723,1.467,1.857,1.467,3.032v0.343c2.823-3.37,4.362-7.58,4.362-12.025c0-5.021-1.948-9.743-5.499-13.295
			C34.575,2.867,29.857,0.909,24.834,0.909L24.834,0.909z M24.837,26.47c-1.805,0-3.502-0.702-4.777-1.978
			c-2.635-2.634-2.635-6.923,0-9.557c1.276-1.276,2.973-1.981,4.778-1.981s3.501,0.705,4.778,1.981
			c1.275,1.275,1.979,2.973,1.979,4.776c0,1.806-0.703,3.504-1.98,4.78C28.338,25.767,26.641,26.47,24.837,26.47L24.837,26.47z"/>
		<path d="M32.72,40.947l-5.083-1.295c-0.293,0.19-0.611,0.344-0.949,0.457l2.903,6.546c0.096,0.221,0.314,0.356,0.552,0.351
			c0.238-0.009,0.448-0.161,0.53-0.382l0.579-1.568c0.055-0.149,0.167-0.268,0.311-0.332s0.309-0.067,0.455-0.01l1.55,0.625
			c0.22,0.088,0.474,0.036,0.638-0.137c0.165-0.17,0.211-0.425,0.115-0.642L32.72,40.947z"/>
		<path d="M16.955,40.947l-1.602,3.613c-0.097,0.218-0.051,0.472,0.114,0.642c0.165,0.173,0.418,0.225,0.639,0.137l1.549-0.624
			c0.146-0.059,0.311-0.056,0.455,0.009c0.144,0.063,0.257,0.183,0.312,0.331l0.577,1.568c0.083,0.222,0.292,0.373,0.53,0.38
			c0.237,0.009,0.456-0.129,0.553-0.348l2.904-6.548c-0.338-0.111-0.656-0.265-0.948-0.455L16.955,40.947z"/>
		<path d="M20.176,36.187v-3.117c0-0.694,0.161-1.349,0.464-1.923l-5.972-1.521c-0.546-0.139-1.134-0.018-1.579,0.327
			c-0.445,0.346-0.709,0.878-0.709,1.441v6.296c0,0.564,0.264,1.098,0.709,1.441c0.444,0.346,1.026,0.468,1.572,0.329l5.901-1.502
			C20.307,37.422,20.176,36.821,20.176,36.187z"/>
		<path d="M36.594,29.952c-0.445-0.344-1.031-0.465-1.578-0.326l-5.97,1.521c0.304,0.574,0.471,1.229,0.471,1.923v3.117
			c0,0.635-0.142,1.235-0.397,1.772l5.889,1.502c0.546,0.139,1.14,0.017,1.584-0.329c0.445-0.344,0.72-0.876,0.72-1.441v-6.296
			C37.313,30.832,37.039,30.299,36.594,29.952z"/>
		<path d="M27.568,36.194v-3.148c0-1.172-0.95-2.122-2.122-2.122h-1.132c-1.172,0-2.122,0.95-2.122,2.122v3.148
			c0,1.172,0.95,2.122,2.122,2.122h1.132C26.618,38.316,27.568,37.366,27.568,36.194z"/>
	</g>
	<path d="M25.919,8.948h-2.053c-0.568,0-1.029-0.461-1.029-1.029V5.866c0-0.568,0.46-1.028,1.029-1.028h2.053
		c0.568,0,1.028,0.46,1.028,1.028v2.053C26.948,8.487,26.487,8.948,25.919,8.948z"/>
	<path d="M15.759,14.005h-2.053c-0.568,0-1.028-0.461-1.028-1.028v-2.054c0-0.567,0.46-1.028,1.028-1.028h2.053
		c0.568,0,1.029,0.461,1.029,1.028v2.054C16.788,13.544,16.328,14.005,15.759,14.005z"/>
	<path d="M13.204,23.005h-2.053c-0.568,0-1.029-0.461-1.029-1.028v-2.054c0-0.567,0.46-1.028,1.029-1.028h2.053
		c0.568,0,1.029,0.461,1.029,1.028v2.054C14.233,22.544,13.772,23.005,13.204,23.005z"/>
	<path d="M38.516,23.005h-2.053c-0.568,0-1.028-0.461-1.028-1.028v-2.054c0-0.567,0.46-1.028,1.028-1.028h2.053
		c0.568,0,1.029,0.461,1.029,1.028v2.054C39.545,22.544,39.084,23.005,38.516,23.005z"/>
	<path d="M35.979,14.005h-2.053c-0.568,0-1.028-0.461-1.028-1.028v-2.054c0-0.567,0.46-1.028,1.028-1.028h2.053
		c0.568,0,1.029,0.461,1.029,1.028v2.054C37.008,13.544,36.547,14.005,35.979,14.005z"/>
</g>
</svg>
